<?xml version="1.0" encoding="UTF-8"?>
<svg width="240" height="240" viewBox="0 0 240 240" version="1.1" xmlns="http://www.w3.org/2000/svg">
    <!-- Clipboard background -->
    <rect x="40" y="20" width="160" height="200" rx="10" fill="#6366F1" opacity="0.1"/>
    <rect x="45" y="25" width="150" height="190" rx="8" fill="white" stroke="#6366F1" stroke-width="2"/>
    
    <!-- Clipboard top -->
    <rect x="100" y="10" width="40" height="20" rx="5" fill="#6366F1"/>
    
    <!-- Checklist lines -->
    <g stroke="#6366F1" stroke-width="2">
        <line x1="70" y1="70" x2="170" y2="70"/>
        <line x1="70" y1="100" x2="170" y2="100"/>
        <line x1="70" y1="130" x2="170" y2="130"/>
        <line x1="70" y1="160" x2="170" y2="160"/>
    </g>
    
    <!-- Checkmarks -->
    <g fill="#6366F1">
        <circle cx="60" cy="70" r="4"/>
        <circle cx="60" cy="100" r="4"/>
        <circle cx="60" cy="130" r="4"/>
        <circle cx="60" cy="160" r="4"/>
    </g>
    
    <!-- Water bottle -->
    <path d="M190,120 Q200,140 190,160 Q180,180 190,200" stroke="#6366F1" fill="none" stroke-width="2"/>
    <path d="M190,120 L200,120 Q210,140 200,160 Q190,180 200,200 L190,200" fill="#6366F1" opacity="0.1"/>
</svg>